<svg width="277" height="425" viewBox="0 0 277 425" fill="none" xmlns="http://www.w3.org/2000/svg">
<g clip-path="url(#clip0_1_2)">
<rect width="277" height="425" fill="#6E6E6E"/>
<path d="M191.055 42.4975C174.777 32.087 155.357 25.9459 134.719 25.9459C113.948 25.9459 94.4203 32.1489 77.4608 43.0389L78.0626 42.6831C54.0144 58.1673 38.0179 87.3878 38.0179 120.924C38.0179 121.558 38.0179 122.192 38.0312 122.827V122.734C38.058 133.392 45.5346 142.008 54.75 142.008H54.8035C64.0189 141.977 71.4688 133.33 71.4688 122.672C71.4688 122.657 71.4688 122.626 71.4688 122.61C71.4554 122.131 71.442 121.558 71.442 120.986C71.442 101.619 80.8446 84.7891 94.6476 76.2503L94.8884 76.1111C106.431 68.9336 120.14 64.7106 134.706 64.7106C149.231 64.7106 162.9 68.9027 174.884 76.2967L174.43 76.0338C188.861 84.6963 198.545 101.851 198.545 121.62C198.545 121.976 198.545 122.347 198.531 122.703V122.657C198.531 161.019 189.597 170.022 167.916 182.552C135.013 200.743 118.308 237.837 118.281 292.813C118.281 303.486 125.758 312.133 134.987 312.149H135C144.229 312.149 151.719 303.502 151.719 292.828C151.719 292.828 151.719 292.828 151.719 292.813C151.746 240.405 169.2 224.704 182.602 217.294C212.053 203.929 232.517 171.337 232.517 133.222C232.517 129.478 232.317 125.781 231.942 122.162L231.982 122.595C231.982 122.301 231.982 121.96 231.982 121.62C231.982 87.5734 215.611 57.9508 191.469 42.6986L191.068 42.4666L191.055 42.4975ZM146.77 356.56C143.72 353.187 139.574 351.115 135 351.115C130.426 351.115 126.28 353.187 123.23 356.575H123.243C121.585 358.215 120.301 360.288 119.525 362.67L119.498 362.778C118.816 364.882 118.428 367.295 118.428 369.832C118.428 369.971 118.428 370.095 118.428 370.234C118.428 370.265 118.428 370.28 118.428 370.311C118.428 375.586 120.274 380.35 123.243 383.815C126.199 387.451 130.372 389.709 135.013 389.709C139.654 389.709 143.827 387.451 146.77 383.831L146.783 383.815C149.846 380.35 151.786 375.555 151.866 370.234C151.799 367.542 151.318 364.975 150.475 362.654L150.515 362.793C149.713 360.318 148.429 358.23 146.797 356.621L146.783 356.606L146.77 356.56Z" fill="#B2E560"/>
</g>
<defs>
<clipPath id="clip0_1_2">
<rect width="277" height="425" fill="white"/>
</clipPath>
</defs>
</svg>
